<svg width="428" height="542" viewBox="0 0 428 542" fill="none" xmlns="http://www.w3.org/2000/svg">
    <g filter="url(#filter0_d_403_1057)">
        <rect x="19.9995" y="52.0005" width="388" height="126" rx="30" fill="#FFD2D7"/>
        <rect x="19.9995" y="52.0005" width="388" height="126" rx="30" fill="white"/>
        <rect x="44.9995" y="87.0005" width="56" height="56" rx="28" fill="#F8FAFF"/>
        <path d="M68.9995 129L70.9995 119L62.9995 116L76.9995 101L74.9995 111L82.9995 114L68.9995 129Z" stroke="#8B98B1" stroke-width="2" stroke-linecap="round" stroke-linejoin="round"/>
        <path d="M122.314 104.5V92.6205H131.566V95.0145H125.41V97.4265H130.306V99.6765H125.41V102.106H131.8V104.5H122.314ZM136.765 102.106H142.723V104.5H133.669V92.6205H136.765V102.106ZM144.497 104.5V92.6205H153.749V95.0145H147.593V97.4265H152.489V99.6765H147.593V102.106H153.983V104.5H144.497ZM166.277 101.098C166.049 101.926 165.683 102.61 165.179 103.15C164.675 103.678 164.075 104.068 163.379 104.32C162.683 104.56 161.915 104.68 161.075 104.68C159.875 104.68 158.837 104.44 157.961 103.96C157.085 103.468 156.413 102.766 155.945 101.854C155.477 100.942 155.243 99.8445 155.243 98.5605C155.243 97.2765 155.477 96.1785 155.945 95.2665C156.413 94.3545 157.085 93.6585 157.961 93.1785C158.837 92.6865 159.869 92.4405 161.057 92.4405C161.885 92.4405 162.647 92.5605 163.343 92.8005C164.039 93.0285 164.627 93.3825 165.107 93.8625C165.587 94.3425 165.929 94.9605 166.133 95.7165L163.415 96.8145C163.247 96.0705 162.971 95.5605 162.587 95.2845C162.215 95.0085 161.741 94.8705 161.165 94.8705C160.601 94.8705 160.109 95.0085 159.689 95.2845C159.281 95.5605 158.963 95.9745 158.735 96.5265C158.519 97.0665 158.411 97.7445 158.411 98.5605C158.411 99.3645 158.513 100.042 158.717 100.594C158.921 101.146 159.227 101.56 159.635 101.836C160.055 102.112 160.571 102.25 161.183 102.25C161.759 102.25 162.245 102.094 162.641 101.782C163.049 101.458 163.325 100.966 163.469 100.306L166.277 101.098ZM177.989 92.6205V95.0145H174.119V104.5H171.023V95.0145H167.135V92.6205H177.989ZM185.429 92.6205C186.845 92.6205 187.943 92.9565 188.723 93.6285C189.515 94.2885 189.911 95.1705 189.911 96.2745C189.911 97.4865 189.521 98.4105 188.741 99.0465C187.961 99.6825 186.863 100 185.447 100L185.159 100.162H182.801V104.5H179.759V92.6205H185.429ZM184.997 97.9665C185.597 97.9665 186.047 97.8465 186.347 97.6065C186.647 97.3665 186.797 96.9825 186.797 96.4545C186.797 95.9385 186.647 95.5605 186.347 95.3205C186.047 95.0805 185.597 94.9605 184.997 94.9605H182.801V97.9665H184.997ZM186.815 98.6145L190.613 104.5H187.193L184.151 99.2985L186.815 98.6145ZM195.265 92.6205V104.5H192.169V92.6205H195.265ZM208.429 101.098C208.201 101.926 207.835 102.61 207.331 103.15C206.827 103.678 206.227 104.068 205.531 104.32C204.835 104.56 204.067 104.68 203.227 104.68C202.027 104.68 200.989 104.44 200.113 103.96C199.237 103.468 198.565 102.766 198.097 101.854C197.629 100.942 197.395 99.8445 197.395 98.5605C197.395 97.2765 197.629 96.1785 198.097 95.2665C198.565 94.3545 199.237 93.6585 200.113 93.1785C200.989 92.6865 202.021 92.4405 203.209 92.4405C204.037 92.4405 204.799 92.5605 205.495 92.8005C206.191 93.0285 206.779 93.3825 207.259 93.8625C207.739 94.3425 208.081 94.9605 208.285 95.7165L205.567 96.8145C205.399 96.0705 205.123 95.5605 204.739 95.2845C204.367 95.0085 203.893 94.8705 203.317 94.8705C202.753 94.8705 202.261 95.0085 201.841 95.2845C201.433 95.5605 201.115 95.9745 200.887 96.5265C200.671 97.0665 200.563 97.7445 200.563 98.5605C200.563 99.3645 200.665 100.042 200.869 100.594C201.073 101.146 201.379 101.56 201.787 101.836C202.207 102.112 202.723 102.25 203.335 102.25C203.911 102.25 204.397 102.094 204.793 101.782C205.201 101.458 205.477 100.966 205.621 100.306L208.429 101.098ZM213.247 92.6205V104.5H210.151V92.6205H213.247ZM225.872 92.6205V95.0145H222.002V104.5H218.906V95.0145H215.018V92.6205H225.872ZM237.657 92.6205L233.463 100.162V104.5H230.367V100.162L226.173 92.6205H229.377L231.051 95.8785L231.933 97.8585L232.833 95.8785L234.507 92.6205H237.657Z" fill="#002D40"/>
        <path d="M126.136 127.94C127.789 127.94 129.085 128.399 130.024 129.316C130.973 130.223 131.448 131.524 131.448 133.22C131.448 134.916 130.973 136.223 130.024 137.14C129.085 138.047 127.789 138.5 126.136 138.5H122.728V127.94H126.136ZM126.264 137.3C127.469 137.3 128.408 136.943 129.08 136.228C129.762 135.503 130.104 134.5 130.104 133.22C130.104 131.94 129.762 130.943 129.08 130.228C128.408 129.503 127.469 129.14 126.264 129.14H124.008V137.3H126.264ZM136.915 138.66C136.403 138.66 135.917 138.564 135.459 138.372C135.011 138.18 134.643 137.871 134.355 137.444C134.077 137.007 133.939 136.442 133.939 135.748V130.5H135.219V135.412C135.219 136.223 135.395 136.783 135.747 137.092C136.099 137.391 136.595 137.54 137.235 137.54C137.533 137.54 137.827 137.492 138.115 137.396C138.403 137.29 138.659 137.13 138.883 136.916C139.117 136.692 139.299 136.41 139.427 136.068C139.565 135.727 139.635 135.322 139.635 134.852V130.5H140.915V138.5H139.795L139.715 137.284C139.437 137.764 139.059 138.116 138.579 138.34C138.109 138.554 137.555 138.66 136.915 138.66ZM147.238 138.66C146.48 138.66 145.803 138.495 145.206 138.164C144.619 137.834 144.16 137.359 143.83 136.74C143.499 136.111 143.334 135.364 143.334 134.5C143.334 133.636 143.499 132.895 143.83 132.276C144.16 131.647 144.614 131.167 145.19 130.836C145.766 130.506 146.422 130.34 147.158 130.34C147.904 130.34 148.539 130.5 149.062 130.82C149.595 131.14 150 131.578 150.278 132.132C150.555 132.676 150.694 133.29 150.694 133.972C150.694 134.154 150.688 134.319 150.678 134.468C150.667 134.618 150.651 134.751 150.63 134.868H144.166V133.732H150.07L149.414 133.86C149.414 133.092 149.2 132.5 148.774 132.084C148.358 131.668 147.808 131.46 147.126 131.46C146.603 131.46 146.15 131.583 145.766 131.828C145.392 132.063 145.099 132.41 144.886 132.868C144.683 133.316 144.582 133.86 144.582 134.5C144.582 135.13 144.688 135.674 144.902 136.132C145.115 136.591 145.414 136.943 145.798 137.188C146.192 137.423 146.662 137.54 147.206 137.54C147.792 137.54 148.267 137.428 148.63 137.204C149.003 136.98 149.302 136.676 149.526 136.292L150.534 136.884C150.331 137.247 150.07 137.562 149.75 137.828C149.44 138.095 149.072 138.303 148.646 138.452C148.23 138.591 147.76 138.66 147.238 138.66ZM159.221 128.964C158.933 128.964 158.699 128.879 158.517 128.708C158.347 128.527 158.261 128.292 158.261 128.004C158.261 127.716 158.347 127.487 158.517 127.316C158.699 127.135 158.933 127.044 159.221 127.044C159.509 127.044 159.739 127.135 159.909 127.316C160.091 127.487 160.181 127.716 160.181 128.004C160.181 128.292 160.091 128.527 159.909 128.708C159.739 128.879 159.509 128.964 159.221 128.964ZM159.861 130.5V138.5H158.581V130.5H159.861ZM162.831 138.5V130.5H163.951L164.063 132.292L163.855 132.116C164.026 131.69 164.255 131.348 164.543 131.092C164.831 130.826 165.162 130.634 165.535 130.516C165.919 130.399 166.314 130.34 166.719 130.34C167.295 130.34 167.818 130.452 168.287 130.676C168.757 130.89 169.13 131.22 169.407 131.668C169.695 132.116 169.839 132.687 169.839 133.38V138.5H168.559V133.828C168.559 132.943 168.367 132.33 167.983 131.988C167.61 131.636 167.146 131.46 166.591 131.46C166.207 131.46 165.823 131.551 165.439 131.732C165.055 131.914 164.735 132.207 164.479 132.612C164.234 133.018 164.111 133.562 164.111 134.244V138.5H162.831ZM177.887 138.5V137.46C178.943 136.682 179.823 135.999 180.527 135.412C181.241 134.826 181.812 134.292 182.239 133.812C182.665 133.332 182.969 132.879 183.151 132.452C183.332 132.015 183.423 131.562 183.423 131.092C183.423 130.463 183.22 129.956 182.815 129.572C182.42 129.178 181.876 128.98 181.183 128.98C180.457 128.98 179.876 129.22 179.439 129.7C179.001 130.17 178.745 130.799 178.671 131.588L177.551 130.916C177.647 130.298 177.844 129.754 178.143 129.284C178.452 128.815 178.863 128.447 179.375 128.18C179.897 127.914 180.516 127.78 181.231 127.78C181.775 127.78 182.26 127.86 182.687 128.02C183.124 128.18 183.497 128.41 183.807 128.708C184.116 128.996 184.351 129.343 184.511 129.748C184.681 130.154 184.767 130.602 184.767 131.092C184.767 131.754 184.607 132.404 184.287 133.044C183.967 133.674 183.439 134.335 182.703 135.028C181.967 135.722 180.969 136.49 179.711 137.332V137.348C179.828 137.338 179.988 137.332 180.191 137.332C180.404 137.322 180.612 137.316 180.815 137.316C181.028 137.306 181.188 137.3 181.295 137.3H184.991V138.5H177.887ZM196.092 138.66C195.431 138.66 194.823 138.495 194.268 138.164C193.713 137.834 193.271 137.359 192.94 136.74C192.609 136.111 192.444 135.364 192.444 134.5C192.444 133.615 192.62 132.863 192.972 132.244C193.324 131.626 193.788 131.156 194.364 130.836C194.94 130.506 195.559 130.34 196.22 130.34C196.881 130.34 197.452 130.511 197.932 130.852C198.423 131.194 198.748 131.647 198.908 132.212L198.748 132.324V126.82H200.028V138.5H198.908L198.796 136.564L198.972 136.468C198.897 136.938 198.716 137.338 198.428 137.668C198.151 137.988 197.804 138.234 197.388 138.404C196.983 138.575 196.551 138.66 196.092 138.66ZM196.22 137.54C196.732 137.54 197.175 137.412 197.548 137.156C197.932 136.9 198.225 136.538 198.428 136.068C198.641 135.588 198.748 135.028 198.748 134.388C198.748 133.78 198.641 133.258 198.428 132.82C198.225 132.383 197.937 132.047 197.564 131.812C197.201 131.578 196.775 131.46 196.284 131.46C195.473 131.46 194.844 131.738 194.396 132.292C193.948 132.847 193.724 133.583 193.724 134.5C193.724 135.418 193.943 136.154 194.38 136.708C194.817 137.263 195.431 137.54 196.22 137.54ZM207.675 133.332C207.675 132.735 207.515 132.276 207.195 131.956C206.875 131.626 206.422 131.46 205.835 131.46C205.28 131.46 204.811 131.583 204.427 131.828C204.043 132.063 203.76 132.447 203.579 132.98L202.539 132.34C202.752 131.743 203.147 131.263 203.723 130.9C204.299 130.527 205.014 130.34 205.867 130.34C206.443 130.34 206.966 130.442 207.435 130.644C207.904 130.836 208.272 131.135 208.539 131.54C208.816 131.935 208.955 132.447 208.955 133.076V136.948C208.955 137.332 209.158 137.524 209.563 137.524C209.766 137.524 209.963 137.498 210.155 137.444L210.091 138.452C209.878 138.559 209.6 138.612 209.259 138.612C208.95 138.612 208.672 138.554 208.427 138.436C208.182 138.319 207.99 138.143 207.851 137.908C207.712 137.663 207.643 137.359 207.643 136.996V136.836L207.963 136.884C207.835 137.3 207.616 137.642 207.307 137.908C206.998 138.164 206.651 138.356 206.267 138.484C205.883 138.602 205.504 138.66 205.131 138.66C204.662 138.66 204.224 138.58 203.819 138.42C203.414 138.26 203.088 138.02 202.843 137.7C202.608 137.37 202.491 136.964 202.491 136.484C202.491 135.887 202.688 135.396 203.083 135.012C203.488 134.618 204.048 134.351 204.763 134.212L207.931 133.588V134.644L205.355 135.172C204.832 135.279 204.443 135.428 204.187 135.62C203.931 135.812 203.803 136.079 203.803 136.42C203.803 136.751 203.931 137.023 204.187 137.236C204.454 137.439 204.827 137.54 205.307 137.54C205.616 137.54 205.91 137.503 206.187 137.428C206.475 137.343 206.731 137.22 206.955 137.06C207.179 136.89 207.355 136.682 207.483 136.436C207.611 136.18 207.675 135.882 207.675 135.54V133.332ZM218.173 130.5L214.413 139.844C214.21 140.367 213.986 140.778 213.741 141.076C213.506 141.386 213.24 141.604 212.941 141.732C212.653 141.871 212.317 141.94 211.933 141.94C211.57 141.94 211.234 141.887 210.925 141.78C210.626 141.684 210.36 141.551 210.125 141.38L210.477 140.26C210.69 140.452 210.914 140.591 211.149 140.676C211.394 140.772 211.634 140.82 211.869 140.82C212.146 140.82 212.408 140.735 212.653 140.564C212.898 140.394 213.122 140.047 213.325 139.524L213.741 138.484L212.941 136.58L210.397 130.5H211.853L213.853 135.716L214.349 137.14L214.925 135.556L216.797 130.5H218.173ZM222.524 138.66C221.745 138.66 221.025 138.495 220.364 138.164C219.713 137.834 219.212 137.364 218.86 136.756L219.948 135.972C220.182 136.463 220.524 136.847 220.972 137.124C221.43 137.402 221.98 137.54 222.62 137.54C223.185 137.54 223.628 137.434 223.948 137.22C224.268 136.996 224.428 136.708 224.428 136.356C224.428 136.132 224.353 135.93 224.204 135.748C224.065 135.556 223.793 135.418 223.388 135.332L221.468 134.932C220.689 134.772 220.129 134.506 219.788 134.132C219.457 133.759 219.292 133.295 219.292 132.74C219.292 132.303 219.414 131.903 219.66 131.54C219.916 131.178 220.273 130.89 220.732 130.676C221.201 130.452 221.75 130.34 222.38 130.34C223.169 130.34 223.836 130.495 224.38 130.804C224.924 131.114 225.329 131.551 225.596 132.116L224.524 132.82C224.342 132.351 224.049 132.01 223.644 131.796C223.238 131.572 222.817 131.46 222.38 131.46C221.996 131.46 221.665 131.514 221.388 131.62C221.121 131.727 220.913 131.876 220.764 132.068C220.625 132.25 220.556 132.458 220.556 132.692C220.556 132.927 220.636 133.146 220.796 133.348C220.956 133.54 221.254 133.679 221.692 133.764L223.692 134.18C224.438 134.33 224.961 134.575 225.26 134.916C225.558 135.258 225.708 135.674 225.708 136.164C225.708 136.666 225.574 137.108 225.308 137.492C225.041 137.866 224.668 138.154 224.188 138.356C223.708 138.559 223.153 138.66 222.524 138.66Z" fill="#8B98B1"/>
        <rect x="283" y="94.5005" width="100" height="41" rx="20" fill="#F8FEFF"/>
        <path d="M305.024 109.62V121.5H301.586L297.896 115.074L296.996 113.31H296.978L297.05 115.506V121.5H294.314V109.62H297.752L301.442 116.046L302.342 117.81H302.36L302.288 115.614V109.62H305.024ZM312.572 121.5V119.52C313.592 118.884 314.462 118.29 315.182 117.738C315.902 117.186 316.484 116.664 316.928 116.172C317.384 115.68 317.72 115.212 317.936 114.768C318.152 114.324 318.26 113.892 318.26 113.472C318.26 113.016 318.122 112.638 317.846 112.338C317.582 112.026 317.186 111.87 316.658 111.87C316.094 111.87 315.656 112.08 315.344 112.5C315.032 112.908 314.864 113.508 314.84 114.3L312.194 113.49C312.218 112.602 312.428 111.858 312.824 111.258C313.232 110.658 313.784 110.208 314.48 109.908C315.176 109.596 315.968 109.44 316.856 109.44C317.636 109.44 318.308 109.554 318.872 109.782C319.448 109.998 319.916 110.292 320.276 110.664C320.636 111.024 320.9 111.432 321.068 111.888C321.248 112.332 321.338 112.788 321.338 113.256C321.338 114.024 321.14 114.744 320.744 115.416C320.348 116.076 319.772 116.718 319.016 117.342C318.272 117.954 317.366 118.572 316.298 119.196V119.214C316.502 119.202 316.742 119.19 317.018 119.178C317.294 119.166 317.582 119.16 317.882 119.16C318.182 119.148 318.452 119.142 318.692 119.142H321.482V121.5H312.572ZM327.362 121.68C326.33 121.68 325.43 121.482 324.662 121.086C323.906 120.678 323.27 120.018 322.754 119.106L325.472 117.756C325.604 118.236 325.814 118.62 326.102 118.908C326.402 119.196 326.846 119.34 327.434 119.34C327.806 119.34 328.124 119.274 328.388 119.142C328.652 119.01 328.856 118.818 329 118.566C329.156 118.302 329.234 117.984 329.234 117.612C329.234 117.252 329.162 116.952 329.018 116.712C328.886 116.472 328.688 116.292 328.424 116.172C328.16 116.04 327.83 115.974 327.434 115.974C327.146 115.974 326.888 116.004 326.66 116.064C326.432 116.112 326.222 116.19 326.03 116.298C325.85 116.394 325.682 116.52 325.526 116.676L323.186 116.244L323.942 109.62H331.43V112.014H326.192L325.886 114.39L325.832 114.678H325.85C326.09 114.402 326.426 114.192 326.858 114.048C327.29 113.904 327.77 113.832 328.298 113.832C329.078 113.832 329.744 113.988 330.296 114.3C330.848 114.612 331.274 115.038 331.574 115.578C331.874 116.118 332.024 116.736 332.024 117.432C332.024 118.164 331.898 118.8 331.646 119.34C331.406 119.868 331.064 120.306 330.62 120.654C330.188 121.002 329.69 121.26 329.126 121.428C328.574 121.596 327.986 121.68 327.362 121.68ZM335.264 118.404C335.708 118.404 336.074 118.506 336.362 118.71C336.65 118.914 336.86 119.184 336.992 119.52C337.136 119.844 337.208 120.21 337.208 120.618C337.208 121.158 337.088 121.674 336.848 122.166C336.62 122.67 336.314 123.108 335.93 123.48C335.558 123.864 335.15 124.152 334.706 124.344L333.464 123.426C333.8 123.294 334.106 123.126 334.382 122.922C334.67 122.718 334.916 122.496 335.12 122.256C335.336 122.016 335.498 121.77 335.606 121.518L335.516 121.464C335.456 121.512 335.378 121.548 335.282 121.572C335.186 121.596 335.06 121.608 334.904 121.608C334.688 121.608 334.466 121.554 334.238 121.446C334.022 121.338 333.836 121.176 333.68 120.96C333.536 120.744 333.464 120.468 333.464 120.132C333.464 119.748 333.548 119.43 333.716 119.178C333.884 118.926 334.106 118.734 334.382 118.602C334.658 118.47 334.952 118.404 335.264 118.404ZM343.549 121.68C341.929 121.68 340.699 121.164 339.859 120.132C339.031 119.1 338.617 117.576 338.617 115.56C338.617 113.544 339.031 112.02 339.859 110.988C340.699 109.956 341.929 109.44 343.549 109.44C345.169 109.44 346.393 109.956 347.221 110.988C348.061 112.02 348.481 113.544 348.481 115.56C348.481 117.576 348.061 119.1 347.221 120.132C346.393 121.164 345.169 121.68 343.549 121.68ZM343.549 119.268C343.993 119.268 344.353 119.148 344.629 118.908C344.905 118.656 345.103 118.26 345.223 117.72C345.355 117.168 345.421 116.448 345.421 115.56C345.421 114.672 345.355 113.958 345.223 113.418C345.103 112.866 344.905 112.47 344.629 112.23C344.353 111.978 343.993 111.852 343.549 111.852C343.117 111.852 342.757 111.978 342.469 112.23C342.193 112.47 341.989 112.866 341.857 113.418C341.737 113.958 341.677 114.672 341.677 115.56C341.677 116.448 341.737 117.168 341.857 117.72C341.989 118.26 342.193 118.656 342.469 118.908C342.757 119.148 343.117 119.268 343.549 119.268ZM355.133 121.68C353.513 121.68 352.283 121.164 351.443 120.132C350.615 119.1 350.201 117.576 350.201 115.56C350.201 113.544 350.615 112.02 351.443 110.988C352.283 109.956 353.513 109.44 355.133 109.44C356.753 109.44 357.977 109.956 358.805 110.988C359.645 112.02 360.065 113.544 360.065 115.56C360.065 117.576 359.645 119.1 358.805 120.132C357.977 121.164 356.753 121.68 355.133 121.68ZM355.133 119.268C355.577 119.268 355.937 119.148 356.213 118.908C356.489 118.656 356.687 118.26 356.807 117.72C356.939 117.168 357.005 116.448 357.005 115.56C357.005 114.672 356.939 113.958 356.807 113.418C356.687 112.866 356.489 112.47 356.213 112.23C355.937 111.978 355.577 111.852 355.133 111.852C354.701 111.852 354.341 111.978 354.053 112.23C353.777 112.47 353.573 112.866 353.441 113.418C353.321 113.958 353.261 114.672 353.261 115.56C353.261 116.448 353.321 117.168 353.441 117.72C353.573 118.26 353.777 118.656 354.053 118.908C354.341 119.148 354.701 119.268 355.133 119.268ZM366.717 121.68C365.097 121.68 363.867 121.164 363.027 120.132C362.199 119.1 361.785 117.576 361.785 115.56C361.785 113.544 362.199 112.02 363.027 110.988C363.867 109.956 365.097 109.44 366.717 109.44C368.337 109.44 369.561 109.956 370.389 110.988C371.229 112.02 371.649 113.544 371.649 115.56C371.649 117.576 371.229 119.1 370.389 120.132C369.561 121.164 368.337 121.68 366.717 121.68ZM366.717 119.268C367.161 119.268 367.521 119.148 367.797 118.908C368.073 118.656 368.271 118.26 368.391 117.72C368.523 117.168 368.589 116.448 368.589 115.56C368.589 114.672 368.523 113.958 368.391 113.418C368.271 112.866 368.073 112.47 367.797 112.23C367.521 111.978 367.161 111.852 366.717 111.852C366.285 111.852 365.925 111.978 365.637 112.23C365.361 112.47 365.157 112.866 365.025 113.418C364.905 113.958 364.845 114.672 364.845 115.56C364.845 116.448 364.905 117.168 365.025 117.72C365.157 118.26 365.361 118.656 365.637 118.908C365.925 119.148 366.285 119.268 366.717 119.268Z" fill="#1AA6B7"/>
    </g>
    <g filter="url(#filter1_d_403_1057)">
        <rect x="-124" y="208" width="386" height="127" rx="30" fill="white"/>
        <path d="M-11.156 258.098C-11.384 258.926 -11.75 259.61 -12.254 260.15C-12.758 260.678 -13.358 261.068 -14.054 261.32C-14.75 261.56 -15.518 261.68 -16.358 261.68C-17.558 261.68 -18.596 261.44 -19.472 260.96C-20.348 260.468 -21.02 259.766 -21.488 258.854C-21.956 257.942 -22.19 256.844 -22.19 255.56C-22.19 254.276 -21.956 253.178 -21.488 252.266C-21.02 251.354 -20.348 250.658 -19.472 250.178C-18.596 249.686 -17.564 249.44 -16.376 249.44C-15.548 249.44 -14.786 249.56 -14.09 249.8C-13.394 250.028 -12.806 250.382 -12.326 250.862C-11.846 251.342 -11.504 251.96 -11.3 252.716L-14.018 253.814C-14.186 253.07 -14.462 252.56 -14.846 252.284C-15.218 252.008 -15.692 251.87 -16.268 251.87C-16.832 251.87 -17.324 252.008 -17.744 252.284C-18.152 252.56 -18.47 252.974 -18.698 253.526C-18.914 254.066 -19.022 254.744 -19.022 255.56C-19.022 256.364 -18.92 257.042 -18.716 257.594C-18.512 258.146 -18.206 258.56 -17.798 258.836C-17.378 259.112 -16.862 259.25 -16.25 259.25C-15.674 259.25 -15.188 259.094 -14.792 258.782C-14.384 258.458 -14.108 257.966 -13.964 257.306L-11.156 258.098ZM1.36595 261.5H-1.82005L-2.64805 258.818H-6.71605L-7.56205 261.5H-10.676L-6.50005 249.62H-2.79205L1.36595 261.5ZM-6.14005 256.712H-3.22405L-4.68205 251.906L-6.14005 256.712ZM2.74759 261.5V249.62H8.52559C9.98959 249.632 11.0696 249.914 11.7656 250.466C12.4616 251.006 12.8096 251.792 12.8096 252.824C12.8096 253.496 12.6116 254.078 12.2156 254.57C11.8196 255.05 11.2136 255.356 10.3976 255.488V255.506C11.3096 255.626 11.9876 255.944 12.4316 256.46C12.8876 256.964 13.1156 257.576 13.1156 258.296C13.1156 259.316 12.7556 260.108 12.0356 260.672C11.3156 261.224 10.2356 261.5 8.79559 261.5H2.74759ZM5.73559 259.322H8.27359C8.83759 259.322 9.25759 259.208 9.53359 258.98C9.80959 258.752 9.94759 258.422 9.94759 257.99C9.94759 257.57 9.80959 257.252 9.53359 257.036C9.25759 256.808 8.83759 256.694 8.27359 256.694H5.73559V259.322ZM5.73559 254.48H7.98559C9.08959 254.48 9.64159 254.048 9.64159 253.184C9.64159 252.32 9.08959 251.888 7.98559 251.888H5.73559V254.48ZM18.1483 259.106H24.1063V261.5H15.0523V249.62H18.1483V259.106ZM25.8804 261.5V249.62H35.1324V252.014H28.9764V254.426H33.8724V256.676H28.9764V259.106H35.3664V261.5H25.8804ZM52.0599 249.62V252.014H48.1899V261.5H45.0939V252.014H41.2059V249.62H52.0599ZM64.7016 249.62L60.4896 261.5H56.8536L52.6236 249.62H55.8816L58.0596 256.802L58.7076 259.142L59.3376 256.838L61.5516 249.62H64.7016Z" fill="#002D40"/>
        <path d="M-17.864 284.94C-16.2107 284.94 -14.9147 285.399 -13.976 286.316C-13.0267 287.223 -12.552 288.524 -12.552 290.22C-12.552 291.916 -13.0267 293.223 -13.976 294.14C-14.9147 295.047 -16.2107 295.5 -17.864 295.5H-21.272V284.94H-17.864ZM-17.736 294.3C-16.5307 294.3 -15.592 293.943 -14.92 293.228C-14.2373 292.503 -13.896 291.5 -13.896 290.22C-13.896 288.94 -14.2373 287.943 -14.92 287.228C-15.592 286.503 -16.5307 286.14 -17.736 286.14H-19.992V294.3H-17.736ZM-7.08475 295.66C-7.59675 295.66 -8.08208 295.564 -8.54075 295.372C-8.98875 295.18 -9.35675 294.871 -9.64475 294.444C-9.92208 294.007 -10.0607 293.442 -10.0607 292.748V287.5H-8.78075V292.412C-8.78075 293.223 -8.60475 293.783 -8.25275 294.092C-7.90075 294.391 -7.40475 294.54 -6.76475 294.54C-6.46608 294.54 -6.17275 294.492 -5.88475 294.396C-5.59675 294.29 -5.34075 294.13 -5.11675 293.916C-4.88208 293.692 -4.70075 293.41 -4.57275 293.068C-4.43408 292.727 -4.36475 292.322 -4.36475 291.852V287.5H-3.08475V295.5H-4.20475L-4.28475 294.284C-4.56208 294.764 -4.94075 295.116 -5.42075 295.34C-5.89008 295.554 -6.44475 295.66 -7.08475 295.66ZM3.23825 295.66C2.48092 295.66 1.80358 295.495 1.20625 295.164C0.619583 294.834 0.160917 294.359 -0.16975 293.74C-0.500417 293.111 -0.66575 292.364 -0.66575 291.5C-0.66575 290.636 -0.500417 289.895 -0.16975 289.276C0.160917 288.647 0.61425 288.167 1.19025 287.836C1.76625 287.506 2.42225 287.34 3.15825 287.34C3.90492 287.34 4.53958 287.5 5.06225 287.82C5.59558 288.14 6.00092 288.578 6.27825 289.132C6.55558 289.676 6.69425 290.29 6.69425 290.972C6.69425 291.154 6.68892 291.319 6.67825 291.468C6.66758 291.618 6.65158 291.751 6.63025 291.868H0.16625V290.732H6.07025L5.41425 290.86C5.41425 290.092 5.20092 289.5 4.77425 289.084C4.35825 288.668 3.80892 288.46 3.12625 288.46C2.60358 288.46 2.15025 288.583 1.76625 288.828C1.39292 289.063 1.09958 289.41 0.88625 289.868C0.683583 290.316 0.58225 290.86 0.58225 291.5C0.58225 292.13 0.688917 292.674 0.90225 293.132C1.11558 293.591 1.41425 293.943 1.79825 294.188C2.19292 294.423 2.66225 294.54 3.20625 294.54C3.79292 294.54 4.26758 294.428 4.63025 294.204C5.00358 293.98 5.30225 293.676 5.52625 293.292L6.53425 293.884C6.33158 294.247 6.07025 294.562 5.75025 294.828C5.44092 295.095 5.07292 295.303 4.64625 295.452C4.23025 295.591 3.76092 295.66 3.23825 295.66ZM15.2218 285.964C14.9338 285.964 14.6991 285.879 14.5178 285.708C14.3471 285.527 14.2618 285.292 14.2618 285.004C14.2618 284.716 14.3471 284.487 14.5178 284.316C14.6991 284.135 14.9338 284.044 15.2218 284.044C15.5098 284.044 15.7391 284.135 15.9098 284.316C16.0911 284.487 16.1818 284.716 16.1818 285.004C16.1818 285.292 16.0911 285.527 15.9098 285.708C15.7391 285.879 15.5098 285.964 15.2218 285.964ZM15.8618 287.5V295.5H14.5818V287.5H15.8618ZM18.8318 295.5V287.5H19.9518L20.0638 289.292L19.8558 289.116C20.0264 288.69 20.2558 288.348 20.5438 288.092C20.8318 287.826 21.1624 287.634 21.5358 287.516C21.9198 287.399 22.3144 287.34 22.7198 287.34C23.2958 287.34 23.8184 287.452 24.2878 287.676C24.7571 287.89 25.1304 288.22 25.4078 288.668C25.6958 289.116 25.8398 289.687 25.8398 290.38V295.5H24.5598V290.828C24.5598 289.943 24.3678 289.33 23.9838 288.988C23.6104 288.636 23.1464 288.46 22.5918 288.46C22.2078 288.46 21.8238 288.551 21.4398 288.732C21.0558 288.914 20.7358 289.207 20.4798 289.612C20.2344 290.018 20.1118 290.562 20.1118 291.244V295.5H18.8318ZM33.8871 295.5V294.46C34.9431 293.682 35.8231 292.999 36.5271 292.412C37.2418 291.826 37.8125 291.292 38.2391 290.812C38.6658 290.332 38.9698 289.879 39.1511 289.452C39.3325 289.015 39.4231 288.562 39.4231 288.092C39.4231 287.463 39.2205 286.956 38.8151 286.572C38.4205 286.178 37.8765 285.98 37.1831 285.98C36.4578 285.98 35.8765 286.22 35.4391 286.7C35.0018 287.17 34.7458 287.799 34.6711 288.588L33.5511 287.916C33.6471 287.298 33.8445 286.754 34.1431 286.284C34.4525 285.815 34.8631 285.447 35.3751 285.18C35.8978 284.914 36.5165 284.78 37.2311 284.78C37.7751 284.78 38.2605 284.86 38.6871 285.02C39.1245 285.18 39.4978 285.41 39.8071 285.708C40.1165 285.996 40.3511 286.343 40.5111 286.748C40.6818 287.154 40.7671 287.602 40.7671 288.092C40.7671 288.754 40.6071 289.404 40.2871 290.044C39.9671 290.674 39.4391 291.335 38.7031 292.028C37.9671 292.722 36.9698 293.49 35.7111 294.332V294.348C35.8285 294.338 35.9885 294.332 36.1911 294.332C36.4045 294.322 36.6125 294.316 36.8151 294.316C37.0285 294.306 37.1885 294.3 37.2951 294.3H40.9911V295.5H33.8871ZM52.0924 295.66C51.431 295.66 50.823 295.495 50.2684 295.164C49.7137 294.834 49.271 294.359 48.9404 293.74C48.6097 293.111 48.4444 292.364 48.4444 291.5C48.4444 290.615 48.6204 289.863 48.9724 289.244C49.3244 288.626 49.7884 288.156 50.3644 287.836C50.9404 287.506 51.559 287.34 52.2204 287.34C52.8817 287.34 53.4524 287.511 53.9324 287.852C54.423 288.194 54.7484 288.647 54.9084 289.212L54.7484 289.324V283.82H56.0284V295.5H54.9084L54.7964 293.564L54.9724 293.468C54.8977 293.938 54.7164 294.338 54.4284 294.668C54.151 294.988 53.8044 295.234 53.3884 295.404C52.983 295.575 52.551 295.66 52.0924 295.66ZM52.2204 294.54C52.7324 294.54 53.175 294.412 53.5484 294.156C53.9324 293.9 54.2257 293.538 54.4284 293.068C54.6417 292.588 54.7484 292.028 54.7484 291.388C54.7484 290.78 54.6417 290.258 54.4284 289.82C54.2257 289.383 53.9377 289.047 53.5644 288.812C53.2017 288.578 52.775 288.46 52.2844 288.46C51.4737 288.46 50.8444 288.738 50.3964 289.292C49.9484 289.847 49.7244 290.583 49.7244 291.5C49.7244 292.418 49.943 293.154 50.3804 293.708C50.8177 294.263 51.431 294.54 52.2204 294.54ZM63.6756 290.332C63.6756 289.735 63.5156 289.276 63.1956 288.956C62.8756 288.626 62.4223 288.46 61.8356 288.46C61.281 288.46 60.8116 288.583 60.4276 288.828C60.0436 289.063 59.761 289.447 59.5796 289.98L58.5396 289.34C58.753 288.743 59.1476 288.263 59.7236 287.9C60.2996 287.527 61.0143 287.34 61.8676 287.34C62.4436 287.34 62.9663 287.442 63.4356 287.644C63.905 287.836 64.273 288.135 64.5396 288.54C64.817 288.935 64.9556 289.447 64.9556 290.076V293.948C64.9556 294.332 65.1583 294.524 65.5636 294.524C65.7663 294.524 65.9636 294.498 66.1556 294.444L66.0916 295.452C65.8783 295.559 65.601 295.612 65.2596 295.612C64.9503 295.612 64.673 295.554 64.4276 295.436C64.1823 295.319 63.9903 295.143 63.8516 294.908C63.713 294.663 63.6436 294.359 63.6436 293.996V293.836L63.9636 293.884C63.8356 294.3 63.617 294.642 63.3076 294.908C62.9983 295.164 62.6516 295.356 62.2676 295.484C61.8836 295.602 61.505 295.66 61.1316 295.66C60.6623 295.66 60.225 295.58 59.8196 295.42C59.4143 295.26 59.089 295.02 58.8436 294.7C58.609 294.37 58.4916 293.964 58.4916 293.484C58.4916 292.887 58.689 292.396 59.0836 292.012C59.489 291.618 60.049 291.351 60.7636 291.212L63.9316 290.588V291.644L61.3556 292.172C60.833 292.279 60.4436 292.428 60.1876 292.62C59.9316 292.812 59.8036 293.079 59.8036 293.42C59.8036 293.751 59.9316 294.023 60.1876 294.236C60.4543 294.439 60.8276 294.54 61.3076 294.54C61.617 294.54 61.9103 294.503 62.1876 294.428C62.4756 294.343 62.7316 294.22 62.9556 294.06C63.1796 293.89 63.3556 293.682 63.4836 293.436C63.6116 293.18 63.6756 292.882 63.6756 292.54V290.332ZM74.1734 287.5L70.4134 296.844C70.2107 297.367 69.9867 297.778 69.7414 298.076C69.5067 298.386 69.24 298.604 68.9414 298.732C68.6534 298.871 68.3174 298.94 67.9334 298.94C67.5707 298.94 67.2347 298.887 66.9254 298.78C66.6267 298.684 66.36 298.551 66.1254 298.38L66.4774 297.26C66.6907 297.452 66.9147 297.591 67.1494 297.676C67.3947 297.772 67.6347 297.82 67.8694 297.82C68.1467 297.82 68.408 297.735 68.6534 297.564C68.8987 297.394 69.1227 297.047 69.3254 296.524L69.7414 295.484L68.9414 293.58L66.3974 287.5H67.8534L69.8534 292.716L70.3494 294.14L70.9254 292.556L72.7974 287.5H74.1734ZM78.5243 295.66C77.7456 295.66 77.0256 295.495 76.3643 295.164C75.7136 294.834 75.2123 294.364 74.8603 293.756L75.9483 292.972C76.1829 293.463 76.5243 293.847 76.9723 294.124C77.4309 294.402 77.9803 294.54 78.6203 294.54C79.1856 294.54 79.6283 294.434 79.9483 294.22C80.2683 293.996 80.4283 293.708 80.4283 293.356C80.4283 293.132 80.3536 292.93 80.2043 292.748C80.0656 292.556 79.7936 292.418 79.3883 292.332L77.4683 291.932C76.6896 291.772 76.1296 291.506 75.7883 291.132C75.4576 290.759 75.2923 290.295 75.2923 289.74C75.2923 289.303 75.4149 288.903 75.6603 288.54C75.9163 288.178 76.2736 287.89 76.7323 287.676C77.2016 287.452 77.7509 287.34 78.3802 287.34C79.1696 287.34 79.8363 287.495 80.3803 287.804C80.9243 288.114 81.3296 288.551 81.5963 289.116L80.5243 289.82C80.3429 289.351 80.0496 289.01 79.6443 288.796C79.2389 288.572 78.8176 288.46 78.3802 288.46C77.9963 288.46 77.6656 288.514 77.3883 288.62C77.1216 288.727 76.9136 288.876 76.7643 289.068C76.6256 289.25 76.5563 289.458 76.5563 289.692C76.5563 289.927 76.6363 290.146 76.7963 290.348C76.9563 290.54 77.2549 290.679 77.6923 290.764L79.6923 291.18C80.4389 291.33 80.9616 291.575 81.2603 291.916C81.5589 292.258 81.7083 292.674 81.7083 293.164C81.7083 293.666 81.5749 294.108 81.3083 294.492C81.0416 294.866 80.6683 295.154 80.1883 295.356C79.7083 295.559 79.1536 295.66 78.5243 295.66Z" fill="#8B98B1"/>
        <rect x="140" y="251" width="97" height="41" rx="20" fill="#F8FEFF"/>
        <path d="M162.024 266.12V278H158.586L154.896 271.574L153.996 269.81H153.978L154.05 272.006V278H151.314V266.12H154.752L158.442 272.546L159.342 274.31H159.36L159.288 272.114V266.12H162.024ZM171.79 278V271.16C171.79 270.848 171.79 270.53 171.79 270.206C171.802 269.87 171.808 269.528 171.808 269.18C171.412 269.54 170.974 269.858 170.494 270.134C170.014 270.398 169.51 270.578 168.982 270.674L168.694 268.118C169.006 268.094 169.336 268.016 169.684 267.884C170.044 267.752 170.398 267.59 170.746 267.398C171.094 267.206 171.406 267.002 171.682 266.786C171.958 266.558 172.168 266.336 172.312 266.12H174.778V278H171.79ZM181.252 278.18C180.22 278.18 179.32 277.982 178.552 277.586C177.796 277.178 177.16 276.518 176.644 275.606L179.362 274.256C179.494 274.736 179.704 275.12 179.992 275.408C180.292 275.696 180.736 275.84 181.324 275.84C181.696 275.84 182.014 275.774 182.278 275.642C182.542 275.51 182.746 275.318 182.89 275.066C183.046 274.802 183.124 274.484 183.124 274.112C183.124 273.752 183.052 273.452 182.908 273.212C182.776 272.972 182.578 272.792 182.314 272.672C182.05 272.54 181.72 272.474 181.324 272.474C181.036 272.474 180.778 272.504 180.55 272.564C180.322 272.612 180.112 272.69 179.92 272.798C179.74 272.894 179.572 273.02 179.416 273.176L177.076 272.744L177.832 266.12H185.32V268.514H180.082L179.776 270.89L179.722 271.178H179.74C179.98 270.902 180.316 270.692 180.748 270.548C181.18 270.404 181.66 270.332 182.188 270.332C182.968 270.332 183.634 270.488 184.186 270.8C184.738 271.112 185.164 271.538 185.464 272.078C185.764 272.618 185.914 273.236 185.914 273.932C185.914 274.664 185.788 275.3 185.536 275.84C185.296 276.368 184.954 276.806 184.51 277.154C184.078 277.502 183.58 277.76 183.016 277.928C182.464 278.096 181.876 278.18 181.252 278.18ZM189.154 274.904C189.598 274.904 189.964 275.006 190.252 275.21C190.54 275.414 190.75 275.684 190.882 276.02C191.026 276.344 191.098 276.71 191.098 277.118C191.098 277.658 190.978 278.174 190.738 278.666C190.51 279.17 190.204 279.608 189.82 279.98C189.448 280.364 189.04 280.652 188.596 280.844L187.354 279.926C187.69 279.794 187.996 279.626 188.272 279.422C188.56 279.218 188.806 278.996 189.01 278.756C189.226 278.516 189.388 278.27 189.496 278.018L189.406 277.964C189.346 278.012 189.268 278.048 189.172 278.072C189.076 278.096 188.95 278.108 188.794 278.108C188.578 278.108 188.356 278.054 188.128 277.946C187.912 277.838 187.726 277.676 187.57 277.46C187.426 277.244 187.354 276.968 187.354 276.632C187.354 276.248 187.438 275.93 187.606 275.678C187.774 275.426 187.996 275.234 188.272 275.102C188.548 274.97 188.842 274.904 189.154 274.904ZM197.439 278.18C195.819 278.18 194.589 277.664 193.749 276.632C192.921 275.6 192.507 274.076 192.507 272.06C192.507 270.044 192.921 268.52 193.749 267.488C194.589 266.456 195.819 265.94 197.439 265.94C199.059 265.94 200.283 266.456 201.111 267.488C201.951 268.52 202.371 270.044 202.371 272.06C202.371 274.076 201.951 275.6 201.111 276.632C200.283 277.664 199.059 278.18 197.439 278.18ZM197.439 275.768C197.883 275.768 198.243 275.648 198.519 275.408C198.795 275.156 198.993 274.76 199.113 274.22C199.245 273.668 199.311 272.948 199.311 272.06C199.311 271.172 199.245 270.458 199.113 269.918C198.993 269.366 198.795 268.97 198.519 268.73C198.243 268.478 197.883 268.352 197.439 268.352C197.007 268.352 196.647 268.478 196.359 268.73C196.083 268.97 195.879 269.366 195.747 269.918C195.627 270.458 195.567 271.172 195.567 272.06C195.567 272.948 195.627 273.668 195.747 274.22C195.879 274.76 196.083 275.156 196.359 275.408C196.647 275.648 197.007 275.768 197.439 275.768ZM209.023 278.18C207.403 278.18 206.173 277.664 205.333 276.632C204.505 275.6 204.091 274.076 204.091 272.06C204.091 270.044 204.505 268.52 205.333 267.488C206.173 266.456 207.403 265.94 209.023 265.94C210.643 265.94 211.867 266.456 212.695 267.488C213.535 268.52 213.955 270.044 213.955 272.06C213.955 274.076 213.535 275.6 212.695 276.632C211.867 277.664 210.643 278.18 209.023 278.18ZM209.023 275.768C209.467 275.768 209.827 275.648 210.103 275.408C210.379 275.156 210.577 274.76 210.697 274.22C210.829 273.668 210.895 272.948 210.895 272.06C210.895 271.172 210.829 270.458 210.697 269.918C210.577 269.366 210.379 268.97 210.103 268.73C209.827 268.478 209.467 268.352 209.023 268.352C208.591 268.352 208.231 268.478 207.943 268.73C207.667 268.97 207.463 269.366 207.331 269.918C207.211 270.458 207.151 271.172 207.151 272.06C207.151 272.948 207.211 273.668 207.331 274.22C207.463 274.76 207.667 275.156 207.943 275.408C208.231 275.648 208.591 275.768 209.023 275.768ZM220.607 278.18C218.987 278.18 217.757 277.664 216.917 276.632C216.089 275.6 215.675 274.076 215.675 272.06C215.675 270.044 216.089 268.52 216.917 267.488C217.757 266.456 218.987 265.94 220.607 265.94C222.227 265.94 223.451 266.456 224.279 267.488C225.119 268.52 225.539 270.044 225.539 272.06C225.539 274.076 225.119 275.6 224.279 276.632C223.451 277.664 222.227 278.18 220.607 278.18ZM220.607 275.768C221.051 275.768 221.411 275.648 221.687 275.408C221.963 275.156 222.161 274.76 222.281 274.22C222.413 273.668 222.479 272.948 222.479 272.06C222.479 271.172 222.413 270.458 222.281 269.918C222.161 269.366 221.963 268.97 221.687 268.73C221.411 268.478 221.051 268.352 220.607 268.352C220.175 268.352 219.815 268.478 219.527 268.73C219.251 268.97 219.047 269.366 218.915 269.918C218.795 270.458 218.735 271.172 218.735 272.06C218.735 272.948 218.795 273.668 218.915 274.22C219.047 274.76 219.251 275.156 219.527 275.408C219.815 275.648 220.175 275.768 220.607 275.768Z" fill="#1AA6B7"/>
        <rect x="282" y="208" width="126" height="126" rx="30" fill="#8B98B1"/>
        <rect x="335" y="250" width="5" height="15" rx="2.5" fill="white"/>
        <rect x="350" y="250" width="5" height="15" rx="2.5" fill="white"/>
        <path d="M325.733 289V278.819H329.173C329.972 278.819 330.625 278.963 331.132 279.251C331.643 279.536 332.02 279.922 332.266 280.41C332.511 280.897 332.634 281.44 332.634 282.04C332.634 282.64 332.511 283.185 332.266 283.676C332.024 284.166 331.649 284.558 331.142 284.849C330.635 285.138 329.985 285.282 329.193 285.282H326.727V284.188H329.153C329.7 284.188 330.139 284.094 330.471 283.905C330.802 283.716 331.043 283.46 331.192 283.139C331.344 282.814 331.42 282.448 331.42 282.04C331.42 281.633 331.344 281.268 331.192 280.947C331.043 280.625 330.801 280.373 330.466 280.191C330.131 280.005 329.687 279.912 329.134 279.912H326.966V289H325.733ZM336.708 289.179C336.224 289.179 335.785 289.088 335.39 288.906C334.996 288.72 334.683 288.454 334.451 288.106C334.219 287.754 334.103 287.33 334.103 286.833C334.103 286.395 334.189 286.041 334.361 285.769C334.533 285.494 334.764 285.278 335.052 285.123C335.341 284.967 335.659 284.851 336.007 284.775C336.358 284.695 336.711 284.632 337.066 284.586C337.53 284.526 337.906 284.481 338.194 284.451C338.486 284.418 338.698 284.364 338.831 284.287C338.967 284.211 339.034 284.079 339.034 283.89V283.85C339.034 283.359 338.9 282.978 338.632 282.706C338.367 282.435 337.964 282.299 337.424 282.299C336.864 282.299 336.424 282.421 336.106 282.667C335.788 282.912 335.564 283.174 335.435 283.452L334.321 283.054C334.52 282.59 334.785 282.229 335.117 281.971C335.452 281.709 335.816 281.527 336.211 281.424C336.608 281.318 336.999 281.265 337.384 281.265C337.629 281.265 337.911 281.295 338.229 281.354C338.551 281.411 338.86 281.528 339.159 281.707C339.46 281.886 339.711 282.156 339.909 282.518C340.108 282.879 340.208 283.363 340.208 283.969V289H339.034V287.966H338.975C338.895 288.132 338.763 288.309 338.577 288.498C338.391 288.687 338.145 288.848 337.836 288.981C337.528 289.113 337.152 289.179 336.708 289.179ZM336.887 288.125C337.351 288.125 337.742 288.034 338.06 287.852C338.382 287.67 338.623 287.434 338.786 287.146C338.952 286.858 339.034 286.554 339.034 286.236V285.162C338.985 285.222 338.875 285.277 338.706 285.326C338.541 285.373 338.348 285.414 338.13 285.451C337.914 285.484 337.704 285.514 337.498 285.54C337.296 285.563 337.132 285.583 337.006 285.6C336.701 285.64 336.416 285.704 336.151 285.794C335.889 285.88 335.677 286.011 335.515 286.187C335.355 286.359 335.276 286.594 335.276 286.893C335.276 287.3 335.427 287.608 335.728 287.817C336.033 288.023 336.419 288.125 336.887 288.125ZM347.162 285.878V281.364H348.335V289H347.162V287.708H347.082C346.903 288.096 346.625 288.425 346.247 288.697C345.869 288.966 345.392 289.1 344.815 289.1C344.338 289.1 343.914 288.996 343.542 288.787C343.171 288.575 342.88 288.256 342.667 287.832C342.455 287.405 342.349 286.866 342.349 286.216V281.364H343.523V286.137C343.523 286.694 343.678 287.138 343.99 287.469C344.305 287.801 344.706 287.966 345.193 287.966C345.485 287.966 345.781 287.892 346.083 287.743C346.388 287.594 346.643 287.365 346.849 287.057C347.057 286.748 347.162 286.356 347.162 285.878ZM355.893 283.074L354.839 283.373C354.773 283.197 354.675 283.026 354.546 282.861C354.42 282.692 354.248 282.552 354.029 282.443C353.81 282.334 353.53 282.279 353.189 282.279C352.721 282.279 352.332 282.387 352.02 282.602C351.712 282.814 351.558 283.084 351.558 283.412C351.558 283.704 351.664 283.934 351.876 284.103C352.088 284.273 352.42 284.413 352.87 284.526L354.004 284.804C354.687 284.97 355.195 285.224 355.53 285.565C355.865 285.903 356.032 286.339 356.032 286.873C356.032 287.31 355.906 287.701 355.654 288.046C355.406 288.391 355.058 288.662 354.61 288.861C354.163 289.06 353.643 289.16 353.049 289.16C352.27 289.16 351.626 288.991 351.115 288.652C350.605 288.314 350.282 287.821 350.146 287.171L351.26 286.893C351.366 287.304 351.566 287.612 351.861 287.817C352.159 288.023 352.549 288.125 353.029 288.125C353.576 288.125 354.011 288.009 354.332 287.777C354.657 287.542 354.819 287.26 354.819 286.932C354.819 286.667 354.726 286.445 354.541 286.266C354.355 286.084 354.07 285.948 353.686 285.858L352.413 285.56C351.714 285.394 351.2 285.138 350.872 284.79C350.547 284.438 350.385 283.999 350.385 283.472C350.385 283.041 350.506 282.66 350.748 282.329C350.993 281.997 351.326 281.737 351.747 281.548C352.171 281.359 352.652 281.265 353.189 281.265C353.944 281.265 354.538 281.43 354.968 281.762C355.403 282.093 355.711 282.531 355.893 283.074ZM361 289.16C360.264 289.16 359.63 288.997 359.096 288.672C358.566 288.344 358.156 287.887 357.868 287.3C357.583 286.71 357.441 286.024 357.441 285.242C357.441 284.46 357.583 283.77 357.868 283.174C358.156 282.574 358.557 282.107 359.071 281.772C359.588 281.434 360.191 281.265 360.881 281.265C361.279 281.265 361.671 281.331 362.059 281.464C362.447 281.596 362.8 281.812 363.118 282.11C363.436 282.405 363.69 282.796 363.879 283.283C364.068 283.77 364.162 284.37 364.162 285.083V285.58H358.276V284.566H362.969C362.969 284.135 362.883 283.75 362.71 283.412C362.541 283.074 362.299 282.808 361.985 282.612C361.673 282.416 361.305 282.319 360.881 282.319C360.414 282.319 360.009 282.435 359.668 282.667C359.33 282.895 359.07 283.194 358.887 283.562C358.705 283.929 358.614 284.324 358.614 284.745V285.421C358.614 285.998 358.713 286.487 358.912 286.888C359.114 287.285 359.394 287.589 359.752 287.797C360.11 288.003 360.526 288.106 361 288.106C361.308 288.106 361.587 288.063 361.835 287.976C362.087 287.887 362.304 287.754 362.487 287.579C362.669 287.4 362.81 287.178 362.909 286.912L364.043 287.231C363.923 287.615 363.723 287.953 363.441 288.245C363.16 288.533 362.811 288.759 362.397 288.921C361.983 289.08 361.517 289.16 361 289.16Z" fill="#F8FAFF"/>
    </g>
    <g filter="url(#filter2_d_403_1057)">
        <rect x="19.9995" y="364" width="388" height="126" rx="30" fill="#FFD2D7"/>
        <rect x="19.9995" y="364" width="388" height="126" rx="30" fill="white"/>
        <rect x="44.9995" y="399" width="56" height="56" rx="28" fill="#F8FAFF"/>
        <path d="M68.9995 441L70.9995 431L62.9995 428L76.9995 413L74.9995 423L82.9995 426L68.9995 441Z" stroke="#8B98B1" stroke-width="2" stroke-linecap="round" stroke-linejoin="round"/>
        <path d="M127.354 404.62C129.214 404.62 130.636 405.136 131.62 406.168C132.616 407.2 133.114 408.664 133.114 410.56C133.114 412.456 132.616 413.92 131.62 414.952C130.636 415.984 129.214 416.5 127.354 416.5H122.314V404.62H127.354ZM127.048 414.16C128.056 414.16 128.788 413.86 129.244 413.26C129.712 412.648 129.946 411.748 129.946 410.56C129.946 409.372 129.712 408.478 129.244 407.878C128.788 407.266 128.056 406.96 127.048 406.96H125.41V414.16H127.048ZM145.594 416.5H142.408L141.58 413.818H137.512L136.666 416.5H133.552L137.728 404.62H141.436L145.594 416.5ZM138.088 411.712H141.004L139.546 406.906L138.088 411.712ZM152.016 404.62C153.876 404.62 155.298 405.136 156.282 406.168C157.278 407.2 157.776 408.664 157.776 410.56C157.776 412.456 157.278 413.92 156.282 414.952C155.298 415.984 153.876 416.5 152.016 416.5H146.976V404.62H152.016ZM151.71 414.16C152.718 414.16 153.45 413.86 153.906 413.26C154.374 412.648 154.608 411.748 154.608 410.56C154.608 409.372 154.374 408.478 153.906 407.878C153.45 407.266 152.718 406.96 151.71 406.96H150.072V414.16H151.71Z" fill="#002D40"/>
        <path d="M126.136 439.94C127.789 439.94 129.085 440.399 130.024 441.316C130.973 442.223 131.448 443.524 131.448 445.22C131.448 446.916 130.973 448.223 130.024 449.14C129.085 450.047 127.789 450.5 126.136 450.5H122.728V439.94H126.136ZM126.264 449.3C127.469 449.3 128.408 448.943 129.08 448.228C129.762 447.503 130.104 446.5 130.104 445.22C130.104 443.94 129.762 442.943 129.08 442.228C128.408 441.503 127.469 441.14 126.264 441.14H124.008V449.3H126.264ZM136.915 450.66C136.403 450.66 135.917 450.564 135.459 450.372C135.011 450.18 134.643 449.871 134.355 449.444C134.077 449.007 133.939 448.442 133.939 447.748V442.5H135.219V447.412C135.219 448.223 135.395 448.783 135.747 449.092C136.099 449.391 136.595 449.54 137.235 449.54C137.533 449.54 137.827 449.492 138.115 449.396C138.403 449.29 138.659 449.13 138.883 448.916C139.117 448.692 139.299 448.41 139.427 448.068C139.565 447.727 139.635 447.322 139.635 446.852V442.5H140.915V450.5H139.795L139.715 449.284C139.437 449.764 139.059 450.116 138.579 450.34C138.109 450.554 137.555 450.66 136.915 450.66ZM147.238 450.66C146.48 450.66 145.803 450.495 145.206 450.164C144.619 449.834 144.16 449.359 143.83 448.74C143.499 448.111 143.334 447.364 143.334 446.5C143.334 445.636 143.499 444.895 143.83 444.276C144.16 443.647 144.614 443.167 145.19 442.836C145.766 442.506 146.422 442.34 147.158 442.34C147.904 442.34 148.539 442.5 149.062 442.82C149.595 443.14 150 443.578 150.278 444.132C150.555 444.676 150.694 445.29 150.694 445.972C150.694 446.154 150.688 446.319 150.678 446.468C150.667 446.618 150.651 446.751 150.63 446.868H144.166V445.732H150.07L149.414 445.86C149.414 445.092 149.2 444.5 148.774 444.084C148.358 443.668 147.808 443.46 147.126 443.46C146.603 443.46 146.15 443.583 145.766 443.828C145.392 444.063 145.099 444.41 144.886 444.868C144.683 445.316 144.582 445.86 144.582 446.5C144.582 447.13 144.688 447.674 144.902 448.132C145.115 448.591 145.414 448.943 145.798 449.188C146.192 449.423 146.662 449.54 147.206 449.54C147.792 449.54 148.267 449.428 148.63 449.204C149.003 448.98 149.302 448.676 149.526 448.292L150.534 448.884C150.331 449.247 150.07 449.562 149.75 449.828C149.44 450.095 149.072 450.303 148.646 450.452C148.23 450.591 147.76 450.66 147.238 450.66ZM159.221 440.964C158.933 440.964 158.699 440.879 158.517 440.708C158.347 440.527 158.261 440.292 158.261 440.004C158.261 439.716 158.347 439.487 158.517 439.316C158.699 439.135 158.933 439.044 159.221 439.044C159.509 439.044 159.739 439.135 159.909 439.316C160.091 439.487 160.181 439.716 160.181 440.004C160.181 440.292 160.091 440.527 159.909 440.708C159.739 440.879 159.509 440.964 159.221 440.964ZM159.861 442.5V450.5H158.581V442.5H159.861ZM162.831 450.5V442.5H163.951L164.063 444.292L163.855 444.116C164.026 443.69 164.255 443.348 164.543 443.092C164.831 442.826 165.162 442.634 165.535 442.516C165.919 442.399 166.314 442.34 166.719 442.34C167.295 442.34 167.818 442.452 168.287 442.676C168.757 442.89 169.13 443.22 169.407 443.668C169.695 444.116 169.839 444.687 169.839 445.38V450.5H168.559V445.828C168.559 444.943 168.367 444.33 167.983 443.988C167.61 443.636 167.146 443.46 166.591 443.46C166.207 443.46 165.823 443.551 165.439 443.732C165.055 443.914 164.735 444.207 164.479 444.612C164.234 445.018 164.111 445.562 164.111 446.244V450.5H162.831ZM177.887 450.5V449.46C178.943 448.682 179.823 447.999 180.527 447.412C181.241 446.826 181.812 446.292 182.239 445.812C182.665 445.332 182.969 444.879 183.151 444.452C183.332 444.015 183.423 443.562 183.423 443.092C183.423 442.463 183.22 441.956 182.815 441.572C182.42 441.178 181.876 440.98 181.183 440.98C180.457 440.98 179.876 441.22 179.439 441.7C179.001 442.17 178.745 442.799 178.671 443.588L177.551 442.916C177.647 442.298 177.844 441.754 178.143 441.284C178.452 440.815 178.863 440.447 179.375 440.18C179.897 439.914 180.516 439.78 181.231 439.78C181.775 439.78 182.26 439.86 182.687 440.02C183.124 440.18 183.497 440.41 183.807 440.708C184.116 440.996 184.351 441.343 184.511 441.748C184.681 442.154 184.767 442.602 184.767 443.092C184.767 443.754 184.607 444.404 184.287 445.044C183.967 445.674 183.439 446.335 182.703 447.028C181.967 447.722 180.969 448.49 179.711 449.332V449.348C179.828 449.338 179.988 449.332 180.191 449.332C180.404 449.322 180.612 449.316 180.815 449.316C181.028 449.306 181.188 449.3 181.295 449.3H184.991V450.5H177.887ZM196.092 450.66C195.431 450.66 194.823 450.495 194.268 450.164C193.713 449.834 193.271 449.359 192.94 448.74C192.609 448.111 192.444 447.364 192.444 446.5C192.444 445.615 192.62 444.863 192.972 444.244C193.324 443.626 193.788 443.156 194.364 442.836C194.94 442.506 195.559 442.34 196.22 442.34C196.881 442.34 197.452 442.511 197.932 442.852C198.423 443.194 198.748 443.647 198.908 444.212L198.748 444.324V438.82H200.028V450.5H198.908L198.796 448.564L198.972 448.468C198.897 448.938 198.716 449.338 198.428 449.668C198.151 449.988 197.804 450.234 197.388 450.404C196.983 450.575 196.551 450.66 196.092 450.66ZM196.22 449.54C196.732 449.54 197.175 449.412 197.548 449.156C197.932 448.9 198.225 448.538 198.428 448.068C198.641 447.588 198.748 447.028 198.748 446.388C198.748 445.78 198.641 445.258 198.428 444.82C198.225 444.383 197.937 444.047 197.564 443.812C197.201 443.578 196.775 443.46 196.284 443.46C195.473 443.46 194.844 443.738 194.396 444.292C193.948 444.847 193.724 445.583 193.724 446.5C193.724 447.418 193.943 448.154 194.38 448.708C194.817 449.263 195.431 449.54 196.22 449.54ZM207.675 445.332C207.675 444.735 207.515 444.276 207.195 443.956C206.875 443.626 206.422 443.46 205.835 443.46C205.28 443.46 204.811 443.583 204.427 443.828C204.043 444.063 203.76 444.447 203.579 444.98L202.539 444.34C202.752 443.743 203.147 443.263 203.723 442.9C204.299 442.527 205.014 442.34 205.867 442.34C206.443 442.34 206.966 442.442 207.435 442.644C207.904 442.836 208.272 443.135 208.539 443.54C208.816 443.935 208.955 444.447 208.955 445.076V448.948C208.955 449.332 209.158 449.524 209.563 449.524C209.766 449.524 209.963 449.498 210.155 449.444L210.091 450.452C209.878 450.559 209.6 450.612 209.259 450.612C208.95 450.612 208.672 450.554 208.427 450.436C208.182 450.319 207.99 450.143 207.851 449.908C207.712 449.663 207.643 449.359 207.643 448.996V448.836L207.963 448.884C207.835 449.3 207.616 449.642 207.307 449.908C206.998 450.164 206.651 450.356 206.267 450.484C205.883 450.602 205.504 450.66 205.131 450.66C204.662 450.66 204.224 450.58 203.819 450.42C203.414 450.26 203.088 450.02 202.843 449.7C202.608 449.37 202.491 448.964 202.491 448.484C202.491 447.887 202.688 447.396 203.083 447.012C203.488 446.618 204.048 446.351 204.763 446.212L207.931 445.588V446.644L205.355 447.172C204.832 447.279 204.443 447.428 204.187 447.62C203.931 447.812 203.803 448.079 203.803 448.42C203.803 448.751 203.931 449.023 204.187 449.236C204.454 449.439 204.827 449.54 205.307 449.54C205.616 449.54 205.91 449.503 206.187 449.428C206.475 449.343 206.731 449.22 206.955 449.06C207.179 448.89 207.355 448.682 207.483 448.436C207.611 448.18 207.675 447.882 207.675 447.54V445.332ZM218.173 442.5L214.413 451.844C214.21 452.367 213.986 452.778 213.741 453.076C213.506 453.386 213.24 453.604 212.941 453.732C212.653 453.871 212.317 453.94 211.933 453.94C211.57 453.94 211.234 453.887 210.925 453.78C210.626 453.684 210.36 453.551 210.125 453.38L210.477 452.26C210.69 452.452 210.914 452.591 211.149 452.676C211.394 452.772 211.634 452.82 211.869 452.82C212.146 452.82 212.408 452.735 212.653 452.564C212.898 452.394 213.122 452.047 213.325 451.524L213.741 450.484L212.941 448.58L210.397 442.5H211.853L213.853 447.716L214.349 449.14L214.925 447.556L216.797 442.5H218.173ZM222.524 450.66C221.745 450.66 221.025 450.495 220.364 450.164C219.713 449.834 219.212 449.364 218.86 448.756L219.948 447.972C220.182 448.463 220.524 448.847 220.972 449.124C221.43 449.402 221.98 449.54 222.62 449.54C223.185 449.54 223.628 449.434 223.948 449.22C224.268 448.996 224.428 448.708 224.428 448.356C224.428 448.132 224.353 447.93 224.204 447.748C224.065 447.556 223.793 447.418 223.388 447.332L221.468 446.932C220.689 446.772 220.129 446.506 219.788 446.132C219.457 445.759 219.292 445.295 219.292 444.74C219.292 444.303 219.414 443.903 219.66 443.54C219.916 443.178 220.273 442.89 220.732 442.676C221.201 442.452 221.75 442.34 222.38 442.34C223.169 442.34 223.836 442.495 224.38 442.804C224.924 443.114 225.329 443.551 225.596 444.116L224.524 444.82C224.342 444.351 224.049 444.01 223.644 443.796C223.238 443.572 222.817 443.46 222.38 443.46C221.996 443.46 221.665 443.514 221.388 443.62C221.121 443.727 220.913 443.876 220.764 444.068C220.625 444.25 220.556 444.458 220.556 444.692C220.556 444.927 220.636 445.146 220.796 445.348C220.956 445.54 221.254 445.679 221.692 445.764L223.692 446.18C224.438 446.33 224.961 446.575 225.26 446.916C225.558 447.258 225.708 447.674 225.708 448.164C225.708 448.666 225.574 449.108 225.308 449.492C225.041 449.866 224.668 450.154 224.188 450.356C223.708 450.559 223.153 450.66 222.524 450.66Z" fill="#8B98B1"/>
        <rect x="297" y="406.5" width="86" height="41" rx="20" fill="#FFDB5B" fill-opacity="0.1"/>
        <path d="M319.024 421.62V433.5H315.586L311.896 427.074L310.996 425.31H310.978L311.05 427.506V433.5H308.314V421.62H311.752L315.442 428.046L316.342 429.81H316.36L316.288 427.614V421.62H319.024ZM328.789 433.5V426.66C328.789 426.348 328.789 426.03 328.789 425.706C328.801 425.37 328.807 425.028 328.807 424.68C328.411 425.04 327.973 425.358 327.493 425.634C327.013 425.898 326.509 426.078 325.981 426.174L325.693 423.618C326.005 423.594 326.335 423.516 326.683 423.384C327.043 423.252 327.397 423.09 327.745 422.898C328.093 422.706 328.405 422.502 328.681 422.286C328.957 422.058 329.167 421.836 329.311 421.62H331.777V433.5H328.789ZM335.659 430.404C336.103 430.404 336.469 430.506 336.757 430.71C337.045 430.914 337.255 431.184 337.387 431.52C337.531 431.844 337.603 432.21 337.603 432.618C337.603 433.158 337.483 433.674 337.243 434.166C337.015 434.67 336.709 435.108 336.325 435.48C335.953 435.864 335.545 436.152 335.101 436.344L333.859 435.426C334.195 435.294 334.501 435.126 334.777 434.922C335.065 434.718 335.311 434.496 335.515 434.256C335.731 434.016 335.893 433.77 336.001 433.518L335.911 433.464C335.851 433.512 335.773 433.548 335.677 433.572C335.581 433.596 335.455 433.608 335.299 433.608C335.083 433.608 334.861 433.554 334.633 433.446C334.417 433.338 334.231 433.176 334.075 432.96C333.931 432.744 333.859 432.468 333.859 432.132C333.859 431.748 333.943 431.43 334.111 431.178C334.279 430.926 334.501 430.734 334.777 430.602C335.053 430.47 335.347 430.404 335.659 430.404ZM343.944 433.68C342.324 433.68 341.094 433.164 340.254 432.132C339.426 431.1 339.012 429.576 339.012 427.56C339.012 425.544 339.426 424.02 340.254 422.988C341.094 421.956 342.324 421.44 343.944 421.44C345.564 421.44 346.788 421.956 347.616 422.988C348.456 424.02 348.876 425.544 348.876 427.56C348.876 429.576 348.456 431.1 347.616 432.132C346.788 433.164 345.564 433.68 343.944 433.68ZM343.944 431.268C344.388 431.268 344.748 431.148 345.024 430.908C345.3 430.656 345.498 430.26 345.618 429.72C345.75 429.168 345.816 428.448 345.816 427.56C345.816 426.672 345.75 425.958 345.618 425.418C345.498 424.866 345.3 424.47 345.024 424.23C344.748 423.978 344.388 423.852 343.944 423.852C343.512 423.852 343.152 423.978 342.864 424.23C342.588 424.47 342.384 424.866 342.252 425.418C342.132 425.958 342.072 426.672 342.072 427.56C342.072 428.448 342.132 429.168 342.252 429.72C342.384 430.26 342.588 430.656 342.864 430.908C343.152 431.148 343.512 431.268 343.944 431.268ZM355.528 433.68C353.908 433.68 352.678 433.164 351.838 432.132C351.01 431.1 350.596 429.576 350.596 427.56C350.596 425.544 351.01 424.02 351.838 422.988C352.678 421.956 353.908 421.44 355.528 421.44C357.148 421.44 358.372 421.956 359.2 422.988C360.04 424.02 360.46 425.544 360.46 427.56C360.46 429.576 360.04 431.1 359.2 432.132C358.372 433.164 357.148 433.68 355.528 433.68ZM355.528 431.268C355.972 431.268 356.332 431.148 356.608 430.908C356.884 430.656 357.082 430.26 357.202 429.72C357.334 429.168 357.4 428.448 357.4 427.56C357.4 426.672 357.334 425.958 357.202 425.418C357.082 424.866 356.884 424.47 356.608 424.23C356.332 423.978 355.972 423.852 355.528 423.852C355.096 423.852 354.736 423.978 354.448 424.23C354.172 424.47 353.968 424.866 353.836 425.418C353.716 425.958 353.656 426.672 353.656 427.56C353.656 428.448 353.716 429.168 353.836 429.72C353.968 430.26 354.172 430.656 354.448 430.908C354.736 431.148 355.096 431.268 355.528 431.268ZM367.112 433.68C365.492 433.68 364.262 433.164 363.422 432.132C362.594 431.1 362.18 429.576 362.18 427.56C362.18 425.544 362.594 424.02 363.422 422.988C364.262 421.956 365.492 421.44 367.112 421.44C368.732 421.44 369.956 421.956 370.784 422.988C371.624 424.02 372.044 425.544 372.044 427.56C372.044 429.576 371.624 431.1 370.784 432.132C369.956 433.164 368.732 433.68 367.112 433.68ZM367.112 431.268C367.556 431.268 367.916 431.148 368.192 430.908C368.468 430.656 368.666 430.26 368.786 429.72C368.918 429.168 368.984 428.448 368.984 427.56C368.984 426.672 368.918 425.958 368.786 425.418C368.666 424.866 368.468 424.47 368.192 424.23C367.916 423.978 367.556 423.852 367.112 423.852C366.68 423.852 366.32 423.978 366.032 424.23C365.756 424.47 365.552 424.866 365.42 425.418C365.3 425.958 365.24 426.672 365.24 427.56C365.24 428.448 365.3 429.168 365.42 429.72C365.552 430.26 365.756 430.656 366.032 430.908C366.32 431.148 366.68 431.268 367.112 431.268Z" fill="#FFDB5B"/>
    </g>
    <defs>
        <filter id="filter0_d_403_1057" x="-32.0005" y="0.000488281" width="492" height="230" filterUnits="userSpaceOnUse" color-interpolation-filters="sRGB">
            <feFlood flood-opacity="0" result="BackgroundImageFix"/>
            <feColorMatrix in="SourceAlpha" type="matrix" values="0 0 0 0 0 0 0 0 0 0 0 0 0 0 0 0 0 0 127 0" result="hardAlpha"/>
            <feOffset/>
            <feGaussianBlur stdDeviation="26"/>
            <feColorMatrix type="matrix" values="0 0 0 0 0.180513 0 0 0 0 0.262564 0 0 0 0 0.459487 0 0 0 0.1 0"/>
            <feBlend mode="normal" in2="BackgroundImageFix" result="effect1_dropShadow_403_1057"/>
            <feBlend mode="normal" in="SourceGraphic" in2="effect1_dropShadow_403_1057" result="shape"/>
        </filter>
        <filter id="filter1_d_403_1057" x="-176" y="156" width="636" height="231" filterUnits="userSpaceOnUse" color-interpolation-filters="sRGB">
            <feFlood flood-opacity="0" result="BackgroundImageFix"/>
            <feColorMatrix in="SourceAlpha" type="matrix" values="0 0 0 0 0 0 0 0 0 0 0 0 0 0 0 0 0 0 127 0" result="hardAlpha"/>
            <feOffset/>
            <feGaussianBlur stdDeviation="26"/>
            <feColorMatrix type="matrix" values="0 0 0 0 0.180513 0 0 0 0 0.262564 0 0 0 0 0.459487 0 0 0 0.1 0"/>
            <feBlend mode="normal" in2="BackgroundImageFix" result="effect1_dropShadow_403_1057"/>
            <feBlend mode="normal" in="SourceGraphic" in2="effect1_dropShadow_403_1057" result="shape"/>
        </filter>
        <filter id="filter2_d_403_1057" x="-32.0005" y="312" width="492" height="230" filterUnits="userSpaceOnUse" color-interpolation-filters="sRGB">
            <feFlood flood-opacity="0" result="BackgroundImageFix"/>
            <feColorMatrix in="SourceAlpha" type="matrix" values="0 0 0 0 0 0 0 0 0 0 0 0 0 0 0 0 0 0 127 0" result="hardAlpha"/>
            <feOffset/>
            <feGaussianBlur stdDeviation="26"/>
            <feColorMatrix type="matrix" values="0 0 0 0 0.180513 0 0 0 0 0.262564 0 0 0 0 0.459487 0 0 0 0.1 0"/>
            <feBlend mode="normal" in2="BackgroundImageFix" result="effect1_dropShadow_403_1057"/>
            <feBlend mode="normal" in="SourceGraphic" in2="effect1_dropShadow_403_1057" result="shape"/>
        </filter>
    </defs>
</svg>
