<svg width="317" height="512" viewBox="0 0 317 512" fill="none" xmlns="http://www.w3.org/2000/svg">
    <g filter="url(#filter0_d_1748_4466)">
        <rect x="17" y="45.4995" width="284" height="202" rx="30" fill="white"/>
        <rect x="32" y="65.4995" width="89" height="89" rx="44.5" fill="#F8FAFF"/>
        <path d="M76.35 127.5C74.1833 127.5 72.1333 127.266 70.2 126.8C68.3 126.3 66.5667 125.616 65 124.75C63.4333 123.883 62.1167 122.883 61.05 121.75L65.1 116.15C65.9 117.25 66.9333 118.183 68.2 118.95C69.5 119.716 70.9 120.3 72.4 120.7C73.9333 121.1 75.4 121.3 76.8 121.3C78.5667 121.3 79.95 121.033 80.95 120.5C81.95 119.966 82.45 119.166 82.45 118.1C82.45 117.4 82.15 116.816 81.55 116.35C80.95 115.883 79.9167 115.483 78.45 115.15L71.7 113.55C69.9 113.116 68.3 112.533 66.9 111.8C65.5333 111.066 64.45 110.133 63.65 109C62.8833 107.833 62.5 106.466 62.5 104.9C62.5 102.866 63.05 101.066 64.15 99.4995C65.25 97.9328 66.8333 96.7162 68.9 95.8495C70.9667 94.9495 73.45 94.4995 76.35 94.4995C79.3167 94.4995 81.9333 94.9495 84.2 95.8495C86.5 96.7495 88.4833 98.1162 90.15 99.9495L86.25 105C84.8833 103.533 83.35 102.433 81.65 101.7C79.9833 100.933 78.0667 100.55 75.9 100.55C74.5667 100.55 73.4833 100.7 72.65 101C71.8167 101.266 71.2 101.65 70.8 102.15C70.4 102.616 70.2 103.15 70.2 103.75C70.2 104.25 70.3167 104.7 70.55 105.1C70.8167 105.5 71.3 105.866 72 106.2C72.7333 106.5 73.8 106.816 75.2 107.15L80.65 108.35C83.8167 109.05 86.15 110.083 87.65 111.45C89.15 112.783 89.9 114.633 89.9 117C89.9 119.266 89.3167 121.183 88.15 122.75C86.9833 124.316 85.3667 125.5 83.3 126.3C81.2667 127.1 78.95 127.5 76.35 127.5ZM73.75 131.9V90.0995H79V131.9H73.75Z" fill="#002D40"/>
        <rect x="209" y="97.9995" width="77" height="24" rx="10" fill="#F8FAFF"/>
        <rect x="229" y="109" width="37" height="2" rx="1" fill="#8B98B1"/>
        <rect x="32" y="169" width="254" height="22" rx="11" fill="#FFDB5B" fill-opacity="0.1"/>
        <rect x="140.5" y="179" width="37" height="2" rx="1" fill="#8B98B1"/>
        <rect x="32" y="205.5" width="254" height="22" rx="11" fill="#FFDB5B" fill-opacity="0.1"/>
        <rect x="140.5" y="215.5" width="37" height="2" rx="1" fill="#8B98B1"/>
        <rect x="17" y="257.5" width="284" height="202" rx="30" fill="white"/>
        <rect x="32" y="277.5" width="94" height="89" rx="44.5" fill="#F8FAFF"/>
        <path d="M93.4 306.5V339.5H83.85L73.6 321.65L71.1 316.75H71.05L71.25 322.85V339.5H63.65V306.5H73.2L83.45 324.35L85.95 329.25H86L85.8 323.15V306.5H93.4Z" fill="#002D40"/>
        <rect x="209" y="310" width="77" height="24" rx="10" fill="#F8FAFF"/>
        <rect x="229" y="321" width="37" height="2" rx="1" fill="#8B98B1"/>
        <rect x="32" y="381" width="254" height="22" rx="11" fill="#FFDB5B" fill-opacity="0.1"/>
        <rect x="140.5" y="391" width="37" height="2" rx="1" fill="#8B98B1"/>
        <rect x="32" y="417.5" width="254" height="22" rx="11" fill="#FFDB5B" fill-opacity="0.1"/>
        <rect x="140.5" y="427.5" width="37" height="2" rx="1" fill="#8B98B1"/>
    </g>
    <defs>
        <filter id="filter0_d_1748_4466" x="-35" y="-6.50049" width="388" height="518" filterUnits="userSpaceOnUse" color-interpolation-filters="sRGB">
            <feFlood flood-opacity="0" result="BackgroundImageFix"/>
            <feColorMatrix in="SourceAlpha" type="matrix" values="0 0 0 0 0 0 0 0 0 0 0 0 0 0 0 0 0 0 127 0" result="hardAlpha"/>
            <feOffset/>
            <feGaussianBlur stdDeviation="26"/>
            <feColorMatrix type="matrix" values="0 0 0 0 0.180513 0 0 0 0 0.262564 0 0 0 0 0.459487 0 0 0 0.1 0"/>
            <feBlend mode="normal" in2="BackgroundImageFix" result="effect1_dropShadow_1748_4466"/>
            <feBlend mode="normal" in="SourceGraphic" in2="effect1_dropShadow_1748_4466" result="shape"/>
        </filter>
    </defs>
</svg>